<?xml version="1.0" standalone="no"?>
<!DOCTYPE svg PUBLIC "-//W3C//DTD SVG 20010904//EN"
 "http://www.w3.org/TR/2001/REC-SVG-20010904/DTD/svg10.dtd">
<svg version="1.0" xmlns="http://www.w3.org/2000/svg"
 width="608.000000pt" height="668.000000pt" viewBox="0 0 608.000000 668.000000"
 preserveAspectRatio="xMidYMid meet">

<g transform="translate(0.000000,668.000000) scale(0.100000,-0.100000)"
fill="#000000" stroke="none">
<path d="M2 5448 c1 -678 5 -1145 8 -1038 3 107 7 174 8 148 l2 -48 1704 -2
1705 -3 5 105 c2 58 5 115 5 128 1 12 6 22 11 22 5 0 7 -7 4 -15 -4 -8 -2 -15
4 -15 5 0 12 7 16 15 3 8 13 15 21 15 9 0 13 5 10 10 -4 6 11 10 39 10 27 0
48 5 53 14 11 18 51 38 63 31 6 -4 13 1 16 10 4 10 13 13 24 10 10 -3 21 -1
25 5 3 5 17 10 30 10 13 0 75 18 137 39 62 21 140 47 173 57 33 9 65 21 71 26
6 4 14 5 17 1 4 -3 7 -1 7 6 0 8 7 10 19 6 12 -3 23 0 28 9 4 8 22 16 38 18
17 2 44 11 61 21 17 9 33 15 35 14 2 -1 3 0 2 2 -5 9 51 31 77 31 15 0 45 6
67 14 l40 14 7 -106 c3 -58 6 -152 6 -209 0 -89 -2 -105 -17 -110 -21 -8 -527
-303 -757 -441 -127 -76 -156 -97 -145 -106 8 -6 13 -18 11 -28 -2 -9 4 -18
14 -20 12 -2 1 -13 -34 -35 -93 -58 -92 -53 -92 -401 0 -200 -3 -301 -10 -297
-5 3 -10 39 -10 79 0 75 -13 129 -36 157 -8 9 -12 18 -10 20 3 3 -1 27 -9 54
-12 45 -14 18 -16 -290 -5 -425 1 -1521 7 -1555 3 -17 22 -35 60 -57 31 -18
62 -33 71 -33 8 0 137 71 287 157 149 87 386 223 526 304 201 116 259 154 275
181 18 30 20 54 23 253 l3 221 45 23 c37 20 43 28 38 45 -13 41 -24 66 -28 66
-6 0 -254 -142 -292 -167 -22 -14 -24 -14 -30 2 -9 22 -1 28 97 84 217 124
218 125 213 146 -14 49 -24 47 -144 -24 -167 -98 -219 -125 -227 -117 -16 16
20 43 160 125 139 81 147 87 147 116 0 17 6 40 14 50 12 17 14 17 37 2 40 -29
39 -19 -7 55 -42 69 -43 73 -27 89 18 17 269 179 277 179 3 0 16 -19 30 -42
29 -49 36 -27 10 28 -20 42 -28 48 -51 35 -17 -9 -18 2 -15 195 1 112 0 204
-2 204 -3 0 -65 -34 -138 -77 -73 -42 -185 -106 -248 -143 -63 -36 -177 -102
-253 -146 -77 -43 -148 -91 -158 -106 -18 -25 -19 -47 -17 -487 l3 -460 100
58 c55 32 171 99 258 149 115 67 159 88 163 78 3 -8 4 -93 2 -189 -3 -157 -5
-178 -23 -202 -24 -32 -972 -585 -1002 -585 -7 0 -17 9 -23 19 -7 13 -10 356
-10 1041 0 952 1 1024 17 1051 12 20 61 55 146 104 71 41 130 75 132 75 2 0 5
-12 7 -27 2 -14 8 -28 13 -30 13 -4 406 223 423 244 6 9 12 31 12 47 0 29 8
35 122 101 68 39 134 70 148 70 l25 0 3 -246 2 -246 -182 -105 c-486 -278
-540 -311 -559 -342 -19 -30 -19 -55 -18 -531 1 -274 4 -505 6 -512 7 -18 35
-16 59 3 18 15 18 15 -3 5 -36 -18 -43 -13 -43 34 0 39 4 46 30 60 43 22 46
20 45 -35 -1 -28 2 -53 6 -56 5 -3 9 -20 9 -38 0 -49 22 -63 62 -39 l33 19 5
480 c4 403 7 483 20 502 16 25 79 64 550 337 168 97 310 181 315 187 6 6 1 6
-12 -1 -19 -10 -22 -8 -25 15 -4 38 -30 51 -65 34 -15 -8 -31 -16 -35 -18 -4
-2 -8 16 -10 40 -3 39 -6 43 -32 46 -16 2 -33 -1 -39 -7 -20 -20 -35 -12 -32
15 1 16 -5 34 -16 45 -17 17 -19 37 -19 222 0 147 -3 208 -12 219 -7 9 -32 28
-55 42 -57 35 -55 41 2 9 67 -37 75 -53 76 -163 1 -52 4 -83 6 -67 2 15 9 27
16 27 8 0 8 3 -1 12 -7 7 -12 16 -12 20 0 4 108 8 240 8 153 0 240 -4 240 -10
0 -5 5 -10 10 -10 7 0 7 6 0 20 -8 14 -8 20 0 20 7 0 8 6 0 19 -5 11 -9 64 -8
118 l2 98 5 -105 c3 -58 9 -110 14 -117 8 -12 80 -57 312 -194 127 -74 152
-86 170 -77 11 6 23 16 27 22 4 6 9 88 10 181 1 94 3 140 5 103 4 -63 14 -86
26 -55 4 9 6 9 6 0 1 -10 40 -13 161 -13 l160 0 0 1085 0 1085 -3040 0 -3040
0 2 -1232z m5290 -424 c15 -8 30 -14 33 -14 15 1 62 -14 75 -25 8 -7 31 -15
50 -19 53 -9 226 -66 243 -79 11 -9 17 -44 22 -127 l6 -115 -23 28 c-13 15
-117 84 -233 152 -164 98 -216 124 -235 120 -24 -5 -25 -4 -22 43 4 46 6 50
30 50 15 0 39 -7 54 -14z m-105 -156 c-3 -8 -6 -5 -6 6 -1 11 2 17 5 13 3 -3
4 -12 1 -19z m0 -80 c-2 -13 -4 -3 -4 22 0 25 2 35 4 23 2 -13 2 -33 0 -45z
m103 11 c0 -5 -4 -8 -9 -4 -5 3 -17 -5 -25 -17 -11 -16 -16 -18 -16 -7 0 18
19 39 37 39 7 0 13 -5 13 -11z m118 -81 c-9 -7 -19 -24 -21 -38 -4 -22 -4 -21
-6 6 -1 34 5 44 28 44 13 0 13 -2 -1 -12z m-127 -15 c13 -16 12 -17 -3 -4 -10
7 -18 15 -18 17 0 8 8 3 21 -13z m157 -152 c67 -40 122 -74 122 -77 0 -7 -40
15 -174 95 -66 39 -123 71 -128 71 -4 0 -8 5 -8 11 0 6 15 2 33 -9 17 -11 87
-52 155 -91z m-23 79 c10 -11 14 -20 9 -20 -5 0 -15 9 -22 20 -7 11 -11 20 -9
20 2 0 12 -9 22 -20z m-75 -62 c49 -29 87 -54 85 -56 -2 -2 -46 21 -97 52 -51
31 -89 56 -85 56 4 0 48 -23 97 -52z m-647 -1006 c3 -157 -1 -192 -22 -192 -8
0 -3 348 5 361 3 6 8 9 10 7 2 -2 5 -81 7 -176z m67 13 c0 -131 -2 -155 -15
-155 -13 0 -15 23 -15 149 0 142 2 152 28 160 1 1 2 -69 2 -154z m137 48 c2
-91 -5 -123 -28 -123 -14 0 -11 204 3 218 6 6 14 9 17 7 2 -3 6 -49 8 -102z
m-67 -62 c0 -72 -6 -101 -21 -101 -5 0 -9 38 -9 85 0 69 3 85 15 85 12 0 15
-14 15 -69z m-345 -379 c-13 -13 -16 19 -21 203 -4 153 -2 200 8 212 11 13 13
-19 16 -197 1 -117 0 -215 -3 -218z m75 233 c0 -167 -2 -195 -15 -195 -13 0
-15 28 -15 188 0 104 3 192 7 195 19 20 23 -10 23 -188z m70 -20 c0 -113 -2
-135 -15 -135 -13 0 -15 22 -15 135 0 113 2 135 15 135 13 0 15 -22 15 -135z
m-272 -110 c-4 -228 -22 -237 -26 -13 -3 166 0 188 18 188 7 0 10 -57 8 -175z
m70 8 c-2 -106 -6 -147 -15 -151 -10 -3 -13 30 -13 141 0 79 3 147 7 150 19
20 23 -6 21 -140z m-128 -88 c0 -113 -2 -135 -15 -135 -13 0 -15 22 -15 135 0
113 2 135 15 135 13 0 15 -22 15 -135z"/>
<path d="M3618 4793 c7 -3 16 -2 19 1 4 3 -2 6 -13 5 -11 0 -14 -3 -6 -6z"/>
<path d="M5209 4506 c13 -15 13 -19 0 -27 -16 -10 -8 -12 15 -3 22 8 20 17 -6
33 -21 13 -22 13 -9 -3z"/>
<path d="M5240 4469 c-12 -9 -12 -10 4 -5 11 4 23 1 28 -6 7 -10 9 -10 6 1 -6
20 -20 23 -38 10z"/>
<path d="M2895 4340 c-3 -6 1 -7 9 -4 18 7 21 14 7 14 -6 0 -13 -4 -16 -10z"/>
<path d="M2942 4315 c0 -16 2 -22 5 -12 2 9 2 23 0 30 -3 6 -5 -1 -5 -18z"/>
<path d="M2610 4290 c-8 -5 -10 -10 -5 -10 6 0 17 5 25 10 8 5 11 10 5 10 -5
0 -17 -5 -25 -10z"/>
<path d="M3365 4280 c-3 -6 1 -7 9 -4 18 7 21 14 7 14 -6 0 -13 -4 -16 -10z"/>
<path d="M5212 4278 c-16 -16 -17 -347 0 -382 6 -14 34 -39 62 -55 28 -16 150
-86 271 -155 120 -69 222 -126 225 -126 3 0 13 6 22 13 14 10 17 40 20 193 3
205 4 201 -76 247 -121 70 -254 147 -357 208 -117 69 -145 79 -167 57z m212
-222 c154 -88 174 -101 163 -112 -7 -7 -327 176 -327 188 0 15 16 8 164 -76z
m-41 -47 c59 -33 107 -65 107 -71 0 -15 -17 -7 -127 56 -91 51 -121 76 -95 76
5 0 57 -27 115 -61z m-38 -54 c63 -35 98 -65 76 -65 -16 0 -161 83 -161 93 0
14 24 7 85 -28z m425 -317 c0 -15 -3 -28 -8 -28 -17 0 -52 32 -52 49 0 26 9
31 36 19 17 -8 24 -19 24 -40z"/>
<path d="M3403 4215 c0 -38 2 -53 4 -32 2 20 2 52 0 70 -2 17 -4 1 -4 -38z"/>
<path d="M2743 4239 c-27 -17 -33 -28 -33 -55 0 -38 9 -41 51 -17 24 14 29 24
29 55 0 44 -3 45 -47 17z"/>
<path d="M3252 4175 c0 -16 2 -22 5 -12 2 9 2 23 0 30 -3 6 -5 -1 -5 -18z"/>
<path d="M3125 4168 c-93 -53 -426 -265 -447 -286 l-28 -26 0 -206 c0 -218 2
-230 47 -230 25 0 438 248 484 292 l29 26 0 211 c0 198 -1 211 -19 221 -25 13
-41 12 -66 -2z m-40 -167 c-21 -18 -318 -192 -322 -188 -5 5 307 196 322 197
5 0 5 -3 0 -9z m-10 -85 c-47 -32 -208 -126 -212 -122 -4 4 48 37 152 99 59
35 98 50 60 23z m20 -74 c-21 -19 -165 -101 -165 -94 1 9 151 102 164 102 6 0
6 -3 1 -8z m5 -97 c-21 -20 -330 -205 -343 -205 -22 0 21 30 178 124 153 92
197 113 165 81z"/>
<path d="M3252 4115 c0 -16 2 -22 5 -12 2 9 2 23 0 30 -3 6 -5 -1 -5 -18z"/>
<path d="M5102 3759 c-53 -10 -100 -43 -108 -75 -9 -36 4 -74 29 -83 31 -12
73 -68 82 -111 7 -30 9 -32 20 -17 7 9 17 17 23 17 16 0 42 -54 42 -88 0 -15
6 -35 13 -44 44 -56 109 -2 135 113 25 111 22 158 -11 202 -53 70 -140 103
-225 86z"/>
<path d="M5867 3593 c-3 -5 -2 -22 0 -39 5 -29 11 -36 66 -62 4 -2 7 12 7 31
0 28 -6 40 -29 56 -32 23 -38 25 -44 14z"/>
<path d="M2958 3539 c-21 -16 -28 -29 -28 -55 0 -19 2 -34 4 -34 3 0 21 9 40
21 30 17 36 27 36 55 0 39 -13 43 -52 13z"/>
<path d="M5060 3364 c0 -3 7 -18 15 -34 l15 -29 -92 -64 c-51 -35 -116 -80
-145 -100 -43 -29 -50 -37 -38 -47 7 -6 24 -36 36 -66 13 -30 26 -54 29 -54 3
0 16 17 28 39 16 28 22 56 22 98 l0 59 90 62 c89 62 99 76 80 111 -9 17 -40
37 -40 25z"/>
<path d="M2955 3199 c-153 -93 -234 -147 -243 -165 -10 -19 -13 -73 -12 -217
1 -191 5 -217 37 -217 9 0 98 50 200 110 101 61 189 110 195 110 25 0 99 53
113 80 9 17 12 30 8 30 -4 0 -36 -18 -72 -39 -245 -147 -416 -239 -419 -225
-2 10 -10 13 -23 9 -10 -4 -19 -2 -19 4 0 5 9 13 20 16 16 5 20 15 20 51 0 42
-1 44 -20 34 -13 -7 -20 -7 -20 -1 0 6 9 15 20 21 15 8 20 21 20 56 0 42 -1
44 -20 34 -11 -6 -20 -7 -20 -3 0 5 9 14 20 21 14 8 20 23 20 47 l0 34 30 -17
c28 -16 32 -16 58 -1 15 8 88 51 162 94 74 43 160 93 190 110 53 30 55 32 56
75 2 54 -18 90 -49 89 -12 -1 -125 -64 -252 -140z"/>
<path d="M2863 3297 l-53 -32 0 -63 0 -64 48 28 c26 15 55 32 65 38 13 8 17
24 17 68 0 68 -4 70 -77 25z"/>
<path d="M2185 3270 c-3 -5 -2 -10 4 -10 5 0 13 5 16 10 3 6 2 10 -4 10 -5 0
-13 -4 -16 -10z"/>
<path d="M2191 3234 c0 -11 3 -14 6 -6 3 7 2 16 -1 19 -3 4 -6 -2 -5 -13z"/>
<path d="M2360 3173 c-3 -23 -2 -39 3 -34 5 5 7 24 5 42 -3 33 -4 33 -8 -8z"/>
<path d="M3200 3151 c-25 -15 -103 -61 -175 -101 -71 -41 -143 -82 -159 -91
l-28 -17 24 -16 c23 -15 29 -15 79 3 30 10 83 36 119 58 36 21 95 56 133 77
65 36 67 38 67 76 0 22 -3 40 -7 39 -5 0 -28 -13 -53 -28z"/>
<path d="M5740 2985 c0 -117 4 -185 10 -185 6 0 10 68 10 185 0 117 -4 185
-10 185 -6 0 -10 -68 -10 -185z"/>
<path d="M5875 3158 c-2 -7 -1 -74 4 -148 l8 -135 1 148 c2 135 -1 168 -13
135z"/>
<path d="M3148 3016 c-48 -29 -90 -55 -94 -58 -3 -4 -1 -16 6 -27 l11 -21 49
25 c27 14 56 25 64 25 8 0 28 8 45 18 26 14 31 23 31 55 0 23 -5 37 -12 36 -7
0 -52 -24 -100 -53z"/>
<path d="M5484 2845 c0 -115 2 -161 3 -102 2 59 2 154 0 210 -1 56 -3 8 -3
-108z"/>
<path d="M5610 2849 c0 -84 4 -128 10 -124 6 4 10 58 10 131 0 76 -4 124 -10
124 -6 0 -10 -50 -10 -131z"/>
<path d="M3240 2960 c-13 -8 -12 -10 3 -10 9 0 17 5 17 10 0 12 -1 12 -20 0z"/>
<path d="M6010 2840 c0 -28 -1 -53 -1 -57 -1 -4 15 -18 35 -30 l36 -23 0 63
c0 62 0 64 -35 80 l-35 17 0 -50z"/>
<path d="M3200 2785 c0 -2 18 -14 40 -25 22 -11 40 -18 40 -15 0 2 -18 14 -40
25 -22 11 -40 18 -40 15z"/>
<path d="M2400 2761 c0 -5 5 -13 10 -16 6 -3 10 -2 10 4 0 5 -4 13 -10 16 -5
3 -10 2 -10 -4z"/>
<path d="M3290 2736 c0 -2 7 -7 16 -10 8 -3 12 -2 9 4 -6 10 -25 14 -25 6z"/>
<path d="M3330 2716 c0 -3 9 -10 20 -16 11 -6 20 -8 20 -6 0 3 -9 10 -20 16
-11 6 -20 8 -20 6z"/>
<path d="M5881 2584 c0 -11 3 -14 6 -6 3 7 2 16 -1 19 -3 4 -6 -2 -5 -13z"/>
<path d="M5905 2560 c3 -5 10 -10 16 -10 5 0 9 5 9 10 0 6 -7 10 -16 10 -8 0
-12 -4 -9 -10z"/>
<path d="M5815 2441 c-3 -5 -1 -12 4 -15 5 -4 11 -2 13 4 4 12 58 -10 58 -22
0 -5 8 -8 17 -8 12 0 5 9 -19 25 -39 26 -63 31 -73 16z"/>
<path d="M5930 2392 c0 -8 80 -55 85 -50 2 2 -16 16 -40 31 -25 14 -45 23 -45
19z"/>
<path d="M5745 2353 c-14 -31 -18 -338 -6 -375 11 -35 64 -94 89 -100 10 -2
14 14 15 61 l2 65 115 67 115 67 0 87 c0 83 -1 88 -25 102 l-25 15 21 -19 22
-19 -52 -29 c-28 -16 -80 -46 -115 -67 l-64 -39 -36 30 c-25 20 -35 36 -33 52
2 20 0 21 -9 9 -8 -11 -9 1 -7 48 3 34 3 62 2 62 -1 0 -5 -8 -9 -17z"/>
<path d="M780 1856 c0 -117 4 -186 10 -186 6 0 10 66 10 179 0 109 -4 182 -10
186 -7 4 -10 -58 -10 -179z"/>
<path d="M948 1831 c-1 -116 -2 -223 -2 -238 -1 -14 4 -28 11 -30 16 -6 19
462 3 472 -7 4 -11 -65 -12 -204z"/>
<path d="M1535 1957 c-77 -46 -161 -95 -187 -111 l-48 -28 0 36 c0 20 -4 36
-10 36 -5 0 -10 -18 -10 -39 0 -33 -5 -43 -30 -61 l-30 -21 0 -181 c0 -139 -3
-179 -12 -176 -10 3 -14 51 -18 174 -5 144 -10 194 -14 134 -1 -8 -11 -16 -23
-18 -21 -3 -23 0 -23 47 0 52 -19 74 -21 24 -3 -129 -11 -288 -15 -292 -2 -2
-4 44 -4 102 0 90 -2 106 -15 101 -12 -5 -15 -25 -15 -91 0 -80 -1 -85 -20
-80 -11 3 -20 1 -20 -4 0 -5 11 -9 24 -9 16 0 26 -7 29 -21 3 -12 3 -18 0 -15
-8 8 -33 -13 -33 -28 0 -6 4 -5 9 3 12 19 41 6 41 -19 0 -11 -5 -20 -10 -20
-6 0 -3 -12 6 -26 17 -25 16 -26 -9 -50 -30 -28 -32 -35 -15 -52 26 -26 -14
-8 -162 73 -85 47 -169 93 -186 102 l-31 15 -247 -143 -246 -143 0 -68 0 -67
81 -47 c90 -52 91 -44 -14 -103 -32 -18 -57 -34 -55 -36 2 -1 149 -87 328
-190 179 -104 511 -295 738 -426 l413 -239 674 0 c415 0 675 4 675 9 0 15 -18
23 -25 11 -3 -5 -19 -10 -35 -10 l-30 0 -2 168 c-3 160 -4 167 -23 165 -18 -2
-18 -2 2 9 18 8 21 16 16 37 -3 14 -2 22 3 18 4 -4 9 -15 10 -23 5 -31 14 -44
31 -44 15 0 15 2 -3 14 -10 8 -16 17 -12 21 4 4 18 -3 31 -16 13 -13 31 -25
40 -25 15 -1 236 -127 478 -271 102 -60 110 -63 173 -63 52 0 74 5 104 23 20
13 161 95 312 182 151 86 281 162 288 168 11 9 9 14 -10 29 -13 9 -30 18 -38
18 -8 0 -83 -38 -166 -85 -84 -46 -164 -89 -178 -95 -30 -11 -28 -16 -26 83 1
49 -2 67 -12 67 -21 1 5 17 236 151 150 86 216 129 216 142 0 9 -4 17 -10 17
-5 0 -167 -90 -360 -200 -192 -110 -354 -200 -359 -200 -6 0 -43 20 -83 44
-112 67 -640 376 -644 376 -2 0 -4 -9 -4 -20 0 -14 22 -33 78 -65 42 -25 206
-120 364 -213 l287 -167 1 -97 c0 -54 -2 -98 -5 -98 -3 0 -147 83 -319 184
-305 179 -421 241 -397 212 9 -10 8 -16 -4 -26 -9 -7 -15 -8 -15 -2 0 6 6 13
13 15 6 3 8 6 2 6 -6 1 -10 54 -10 139 l0 137 148 85 c81 46 147 87 147 90 0
10 -81 55 -94 52 -7 -1 -60 -28 -117 -60 -130 -72 -163 -87 -152 -70 10 17 11
338 0 338 -15 0 3 18 51 50 76 52 26 28 -123 -59 -76 -45 -142 -81 -147 -81
-4 0 -8 -90 -8 -201 0 -180 -2 -200 -16 -195 -9 3 -115 64 -237 134 -122 71
-251 144 -286 163 l-64 35 2 204 c1 113 5 208 9 212 9 8 162 97 260 150 70 38
72 41 59 61 -8 12 -67 53 -131 91 -88 51 -120 66 -129 57 -6 -6 -35 -11 -65
-11 -74 0 -118 27 -133 83 -6 23 -13 47 -14 54 -3 10 -180 115 -216 127 -8 3
-77 -32 -154 -77z m-388 -424 c-2 -32 -3 -8 -3 52 0 61 1 87 3 58 2 -29 2 -78
0 -110z m243 -35 c0 -139 -3 -179 -12 -176 -10 4 -14 52 -16 186 -2 159 -1
181 13 176 13 -5 15 -34 15 -186z m160 -109 c0 -151 -2 -170 -15 -159 -12 10
-15 42 -15 171 0 135 2 159 15 159 13 0 15 -26 15 -171z m-82 12 c2 -104 0
-132 -10 -129 -10 3 -14 40 -16 137 -2 104 0 132 10 129 10 -3 14 -40 16 -137z
m-195 -65 c3 -8 3 -16 0 -19 -9 -10 -33 5 -33 19 0 18 26 18 33 0z m-4 -61 c3
-17 1 -18 -14 -5 -15 13 -17 12 -13 -5 2 -11 10 -19 16 -17 7 1 12 -2 12 -8 0
-13 -11 -12 -32 4 -10 7 -18 23 -18 35 0 17 5 22 22 19 13 -2 24 -11 27 -23z
m714 18 c11 -10 -13 -32 -29 -26 -20 8 -17 33 4 33 10 0 22 -3 25 -7z m-243
-59 c6 -14 10 -83 10 -153 0 -126 0 -127 -27 -152 -57 -52 -265 -199 -281
-199 -18 0 -22 31 -22 169 0 119 2 140 18 154 31 27 277 206 285 207 4 0 12
-12 17 -26z m-295 5 c11 -17 -1 -21 -15 -4 -8 9 -8 15 -2 15 6 0 14 -5 17 -11z
m-1 -47 c2 -4 -4 -8 -15 -8 -10 0 -19 4 -19 8 0 10 27 10 34 0z m16 -42 c0 -5
-8 -10 -17 -10 -15 0 -16 2 -3 10 19 12 20 12 20 0z m-319 -209 l23 -18 -27
-18 c-48 -31 -117 8 -72 41 26 19 49 17 76 -5z m1047 -103 c-3 -7 -11 -13 -18
-13 -7 0 -15 6 -17 13 -3 7 4 12 17 12 13 0 20 -5 18 -12z m-1598 -89 c0 -16
-31 -22 -43 -10 -9 9 -9 14 2 20 16 10 41 4 41 -10z m2340 -43 c0 -2 -12 -11
-27 -20 l-28 -17 24 20 c23 21 31 25 31 17z m-736 -37 c56 -17 106 -35 111
-41 12 -11 -41 -60 -122 -114 l-51 -35 -127 41 c-69 23 -125 45 -123 50 2 4
37 35 78 69 52 42 84 60 104 61 16 0 74 -14 130 -31z m712 -14 c-8 -8 -18 -15
-22 -15 -3 0 -1 7 6 15 7 8 17 15 22 15 5 0 3 -7 -6 -15z m-65 -8 c-6 -8 -7
-18 -3 -22 4 -5 1 -5 -6 -1 -10 6 -10 11 -1 22 6 8 14 14 16 14 3 0 0 -6 -6
-13z m90 -10 c-6 -8 -8 -23 -5 -33 6 -18 6 -18 -8 0 -13 17 -13 21 0 37 9 10
18 16 20 14 3 -3 0 -11 -7 -18z m-1023 -174 c-3 -19 -30 -28 -53 -19 -25 9 -5
36 27 36 23 0 29 -4 26 -17z m1095 -58 c-4 -15 -36 -12 -41 3 -3 9 3 13 19 10
13 -1 23 -7 22 -13z m-183 -25 c8 -5 11 -10 5 -10 -5 0 -17 5 -25 10 -8 5 -10
10 -5 10 6 0 17 -5 25 -10z m85 -60 c3 -5 1 -10 -4 -10 -6 0 -11 5 -11 10 0 6
2 10 4 10 3 0 8 -4 11 -10z m-5 -30 c0 -5 -4 -10 -9 -10 -6 0 -13 5 -16 10 -3
6 1 10 9 10 9 0 16 -4 16 -10z"/>
<path d="M2645 1879 c5 -15 2 -22 -14 -26 -12 -3 -21 -9 -21 -13 0 -5 -17 -19
-37 -31 -21 -13 -40 -26 -43 -29 -6 -7 -49 -34 -94 -60 -22 -12 -36 -15 -36
-8 0 6 -2 9 -5 6 -3 -2 2 -27 10 -55 17 -57 75 -149 132 -210 37 -40 43 -43
94 -43 64 0 110 24 127 66 6 16 15 86 19 155 l8 126 -73 71 c-43 42 -71 63
-67 51z m55 -158 c0 -12 -26 -40 -67 -73 -111 -88 -101 -83 -129 -57 -24 23
-32 53 -15 64 5 3 17 -4 25 -16 l15 -22 38 26 c21 15 56 43 78 62 46 40 55 42
55 16z"/>
<path d="M5132 1826 c-2 -42 -4 -47 -17 -36 -8 7 -13 15 -11 19 2 3 -17 6 -42
6 -39 0 -48 4 -60 25 -12 23 -12 21 -7 -22 3 -27 7 -67 10 -90 2 -24 5 -72 7
-107 l2 -65 -62 3 c-63 2 -102 -10 -102 -33 0 -16 102 -94 147 -113 52 -21
100 -17 129 13 19 18 24 31 20 50 -8 29 -8 29 35 7 19 -10 57 -18 89 -18 l55
0 3 165 c1 91 0 176 -3 190 l-7 25 -12 -24 c-13 -23 -14 -23 -24 -5 -6 10 -12
14 -12 7 0 -7 -7 -10 -15 -7 -9 4 -15 0 -15 -9 0 -9 -5 -19 -12 -23 -8 -5 -9
-2 -5 9 4 12 1 17 -11 17 -15 0 -17 -11 -14 -95 l3 -95 -30 0 -30 0 -4 128
c-1 70 -4 105 -5 78z"/>
<path d="M6033 1833 c9 -2 23 -2 30 0 6 3 -1 5 -18 5 -16 0 -22 -2 -12 -5z"/>
<path d="M4545 1694 c-16 -9 -57 -33 -90 -54 -33 -20 -151 -88 -262 -151
l-202 -114 -3 -145 c-1 -80 -2 -172 -3 -204 l0 -60 99 -60 98 -61 62 34 c33
19 109 63 168 98 l106 63 -5 229 -6 229 31 16 c42 21 40 26 -3 12 l-35 -11 -2
-125 c-2 -69 -3 -148 -3 -175 -1 -53 -9 -75 -28 -75 -9 0 -8 3 1 8 10 7 13 66
13 255 0 147 4 247 10 247 5 0 8 -3 7 -7 -2 -5 0 -9 5 -10 16 -6 19 -2 8 10
-8 11 -2 18 29 36 22 12 40 24 40 27 0 6 -1 5 -35 -12z"/>
<path d="M1013 1615 c0 -22 2 -30 4 -17 2 12 2 30 0 40 -3 9 -5 -1 -4 -23z"/>
<path d="M1011 1544 c0 -11 3 -14 6 -6 3 7 2 16 -1 19 -3 4 -6 -2 -5 -13z"/>
<path d="M1040 1410 c0 -5 5 -10 11 -10 5 0 7 5 4 10 -3 6 -8 10 -11 10 -2 0
-4 -4 -4 -10z"/>
<path d="M1022 1370 c0 -14 2 -19 5 -12 2 6 2 18 0 25 -3 6 -5 1 -5 -13z"/>
<path d="M6062 1378 c-9 -9 -12 -68 -12 -205 0 -143 -3 -193 -12 -193 -7 0
-81 41 -165 90 -84 50 -155 90 -158 90 -3 0 -5 -21 -5 -47 l1 -48 122 -69
c200 -114 212 -120 230 -113 15 6 17 31 17 257 0 137 -1 250 -3 250 -2 0 -8
-5 -15 -12z"/>
<path d="M1050 1371 c0 -5 5 -13 10 -16 6 -3 10 -2 10 4 0 5 -4 13 -10 16 -5
3 -10 2 -10 -4z"/>
<path d="M5245 1217 l-130 -72 -3 -265 c-1 -146 -3 -309 -5 -362 l-2 -98 -250
145 c-137 80 -253 145 -257 145 -15 0 -65 -35 -65 -45 1 -5 131 -85 291 -176
l290 -166 195 115 c108 64 235 138 284 166 48 28 88 56 89 61 0 6 -13 18 -30
28 l-32 19 -117 -65 c-65 -35 -127 -67 -138 -71 -20 -6 -20 -1 -20 337 0 330
1 343 20 359 11 10 18 17 15 18 -3 0 -63 -33 -135 -73z"/>
<path d="M3240 1213 l0 -58 109 -62 c61 -35 116 -63 123 -63 15 0 98 42 98 50
0 5 -300 181 -321 188 -5 2 -9 -23 -9 -55z"/>
<path d="M3365 980 c-3 -6 1 -7 9 -4 18 7 21 14 7 14 -6 0 -13 -4 -16 -10z"/>
<path d="M5970 736 c-58 -35 -235 -139 -395 -231 -159 -93 -333 -193 -386
-224 -52 -31 -181 -105 -286 -166 l-191 -110 274 -3 274 -2 367 213 c203 118
387 225 410 238 l43 24 0 163 c0 89 -1 162 -2 161 -2 0 -50 -29 -108 -63z"/>
<path d="M4501 366 c-29 -19 -81 -49 -117 -67 -35 -18 -64 -36 -64 -40 0 -4
10 -11 23 -15 12 -4 24 -9 27 -13 3 -3 19 -14 35 -23 30 -16 32 -16 43 3 13
20 79 27 98 10 5 -6 14 -3 23 6 12 13 11 14 -10 8 -20 -6 -22 -5 -11 6 6 7 12
17 12 23 0 5 -6 1 -14 -10 -11 -15 -17 -16 -27 -7 -9 9 -19 9 -46 -2 -18 -8
-40 -12 -48 -9 -17 7 -20 30 -5 39 5 3 7 12 3 20 -3 10 1 15 15 15 12 0 25 8
31 17 5 10 12 15 16 11 3 -3 -3 -15 -15 -26 -12 -11 -19 -25 -15 -31 3 -6 2
-11 -3 -11 -6 0 -12 -6 -15 -14 -4 -9 0 -12 13 -9 10 3 21 15 25 26 4 14 8 17
12 10 9 -25 20 -13 19 22 -1 19 -5 35 -10 35 -6 0 -1 6 10 14 14 11 21 11 26
3 4 -7 8 -9 9 -4 1 4 2 10 3 15 1 4 5 13 9 20 12 18 7 16 -52 -22z"/>
<path d="M3010 306 c0 -2 7 -7 16 -10 8 -3 12 -2 9 4 -6 10 -25 14 -25 6z"/>
<path d="M3067 293 c-12 -12 -7 -22 8 -17 8 4 15 10 15 15 0 11 -14 12 -23 2z"/>
<path d="M3017 279 c7 -7 15 -10 18 -7 3 3 -2 9 -12 12 -14 6 -15 5 -6 -5z"/>
<path d="M3023 220 c0 -25 2 -35 4 -22 2 12 2 32 0 45 -2 12 -4 2 -4 -23z"/>
<path d="M3097 180 c-13 -19 -15 -19 -21 -4 -4 9 -9 14 -13 11 -3 -4 0 -14 7
-22 11 -13 10 -28 -10 -86 -12 -38 -20 -72 -17 -76 3 -3 18 36 33 86 21 69 32
91 45 91 10 0 46 -36 84 -85 36 -47 69 -85 72 -85 6 0 6 0 -61 85 -60 77 -86
105 -96 105 -5 0 -15 -9 -23 -20z"/>
<path d="M4560 186 c0 -9 -12 -21 -27 -27 l-28 -11 24 -9 c14 -6 30 -13 36
-17 6 -4 2 1 -8 11 -11 9 -15 17 -9 17 12 0 27 39 18 47 -3 4 -6 -1 -6 -11z"/>
<path d="M3011 144 c0 -11 3 -14 6 -6 3 7 2 16 -1 19 -3 4 -6 -2 -5 -13z"/>
<path d="M4598 123 c-5 -21 17 -42 30 -28 3 3 0 5 -6 5 -6 0 -12 10 -14 23
l-3 22 -7 -22z"/>
<path d="M3007 68 c-4 -12 -4 -24 -1 -27 6 -7 24 20 24 37 0 21 -17 13 -23
-10z"/>
<path d="M4658 73 c7 -3 16 -2 19 1 4 3 -2 6 -13 5 -11 0 -14 -3 -6 -6z"/>
</g>
</svg>
